<svg xmlns="http://www.w3.org/2000/svg" xmlns:xlink="http://www.w3.org/1999/xlink" viewBox="0,0,256,256" width="50px" height="50px" fill-rule="nonzero"><g fill="#328181" fill-rule="nonzero" stroke="none" stroke-width="1" stroke-linecap="butt" stroke-linejoin="miter" stroke-miterlimit="10" stroke-dasharray="" stroke-dashoffset="0" font-family="none" font-weight="none" font-size="none" text-anchor="none" style="mix-blend-mode: normal"><g transform="scale(5.12,5.12)"><path d="M18,41.57813c0,0.89063 -0.47656,1.42188 -1.15234,1.42188c-0.23828,0 -0.50391,-0.06641 -0.78516,-0.20703l-10.89844,-5.51953c-0.64062,-0.32422 -1.16406,-1.18359 -1.16406,-1.90625v-27.05469c0,-0.71484 0.37891,-1.13672 0.92188,-1.13672c0.19141,0 0.40625,0.05078 0.62891,0.16406l0.38281,0.19531h0.00391l12.01172,6.08203c0.01953,0.01172 0.03516,0.03125 0.05078,0.04688zM30.58594,8.88281l0.73438,-1.20703c0.26172,-0.42969 0.74219,-0.67578 1.23047,-0.67578c0.11328,0 0.23047,0.01563 0.34375,0.04688c0.08594,0.01953 0.17578,0.05078 0.26953,0.09766l12.66797,6.41406c0.00391,0 0.00391,0.00391 0.00391,0.00391l0.01172,0.00391c0.00781,0.00391 0.00781,0.01563 0.01563,0.01953c0.0625,0.05078 0.08984,0.13672 0.04688,0.20703l-12.61719,20.76563l-1.28906,2.11719l-8.35937,-16.37109zM20,30.60547v-13.04297l8.98047,17.59375l-8.07812,-4.08984zM46,41.57813c0,0.83594 -0.49609,1.3125 -1.22656,1.3125c-0.32812,0 -0.70312,-0.09375 -1.09766,-0.29297l-1.80859,-0.91797l-8.07812,-4.08984l12.21094,-20.09375z"></path></g></g></svg>